<svg width="64" height="64" version="1.1" xmlns="http://www.w3.org/2000/svg" desc="Created with imagetracer.js version 1.2.6" ><path fill="rgb(5,23,37)" stroke="rgb(5,23,37)" stroke-width="1" opacity="1" d="M 1.5 0 L 3 0.5 L 3 6 Q 0 4.8 1 8.5 L 3 8.5 L 4 10.5 L 2.5 11 L 1 10.5 L 0.5 14 L 0 10.5 L 0 8.5 Q -1.5 4.1 1.5 5 L 1.5 4 Q -1.1 4.8 0 1.5 L 1.5 0 Z " /><path fill="rgb(5,23,37)" stroke="rgb(5,23,37)" stroke-width="1" opacity="1" d="M 6.5 0 L 10.5 1 L 13.5 0 L 18 0.5 L 17.5 2 L 20.5 0 L 21.5 3 L 28 6 L 28 3 Q 31 4 30 1 L 26 0.5 L 29.5 0 L 33.5 0 L 46.5 0 L 47 1.5 L 46.5 3 Q 50.7 4.1 49 0 L 52 0 L 52.5 3 L 54 2.5 Q 52.8 7.8 55.5 9 L 56 2.5 Q 53.7 1.3 56.5 0 L 57.5 3 L 58 0 L 62.5 1 L 64 0.5 L 64 4.5 Q 64.8 6.8 62.5 6 L 60 5.5 L 59.5 3 L 58 6.5 L 58.5 9 L 59.5 7 L 61.5 7 L 64 9.5 L 62 12.5 L 64 12.5 L 63.5 18 Q 61.7 15.2 60 19.5 L 64 20 L 64 31.5 L 63 32.5 Q 65.3 33.8 64 38.5 L 64 40.5 L 63 43.5 L 64 45.5 L 61 47.5 L 62 49.5 L 59 50.5 L 62.5 52 L 64 51.5 L 63.5 54 L 61.5 54 L 58.5 53 Q 57.3 55.3 56 52.5 L 59 51.5 L 58 49 Q 55 50.3 56 46.5 L 57.5 47 L 63 45.5 L 60.5 45 L 58.5 46 L 54.5 45 L 51 46.5 L 55 48.5 L 53.5 49 L 52.5 48 L 50 49.5 L 49 46 L 47 46.5 L 48 48.5 Q 44.5 50 47 51.5 L 46 54.5 L 48.5 56 L 54 55 L 52 59 Q 54.7 57.9 54 60.5 L 55 64 L 52.5 63 L 49.5 64 L 47.5 63 L 45.5 63 L 36.5 64 L 32.5 63 L 30.5 63 L 28.5 64 L 26.5 59 L 25.5 64 L 22.5 63 L 19.5 64 L 16.5 62 L 16.5 64 L 11.5 63 L 8.5 64 L 3.5 62 L 3.5 63 L 5 63.5 L 2.5 64 L 0 63.5 L 0.5 52 L 2.5 52 Q 4.8 51.3 4 53.5 L 2 57.5 L 5.5 58 L 4.5 55 Q 5.8 57.2 7 54.5 L 6 52.5 L 8 52.5 L 9 49.5 L 6 49 L 8 45 Q 5.3 46.1 6 43.5 L 7.5 41 L 4 41.5 L 5 43.5 L 3 47 Q 6 46 5 49 L 2.5 50 L 1 49.5 L 0.5 51 L 0 48.5 L 0 46.5 L 0 28.5 L 1 26.5 L 0 25.5 L 0 16 L 3.5 15 L 5.5 16 L 8 14.5 L 5.5 13 L 2 13.5 L 2 12 L 6 12 L 6 10.5 L 8 10.5 Q 8.8 7.9 5.5 9 L 5.5 8 L 8 6.5 L 4 3.5 L 7 1.5 L 6.5 0 Z M 14 1 L 14 4 Q 17 3 14 1 Z M 38 1 L 37 3 L 40 3 L 38 1 Z M 61 1 L 62 3 Q 63 0 61 1 Z M 41 2 L 41 4 Q 38 3 39 6 L 42 6 Q 44 5 42 4 L 44 3 L 41 2 Z M 17 6 L 17 8 L 19 7 L 17 6 Z M 62 8 Q 60 11 63 10 L 62 8 Z M 36 9 L 35 10 L 33 11 L 33 17 L 31 17 L 31 10 L 28 10 L 29 17 L 26 16 Q 28 8 23 10 L 24 17 L 22 16 L 17 20 L 17 23 L 10 23 L 10 26 L 17 26 L 17 29 L 12 28 L 10 31 Q 11 33 13 31 Q 18 29 17 34 L 15 34 L 10 33 L 12 37 L 17 36 L 17 39 L 10 39 L 10 42 L 17 42 L 17 45 Q 19 48 24 47 L 23 54 L 26 55 L 30 54 L 31 54 L 31 47 Q 34 46 33 50 L 33 52 L 32 55 L 36 54 L 35 51 Q 34 45 38 47 L 37 51 L 38 55 L 41 53 L 40 47 Q 46 48 47 45 L 47 42 L 54 42 L 54 39 L 47 39 L 47 36 L 52 37 L 55 36 L 53 33 L 47 34 Q 45 29 52 31 Q 53 33 54 31 L 53 28 L 51 29 Q 45 31 47 26 L 53 26 L 56 28 Q 57 25 54 26 L 54 23 L 47 23 L 47 20 L 43 16 L 40 17 L 41 10 L 38 10 L 38 16 L 37 16 L 35 17 L 36 13 L 36 9 Z M 55 9 L 54 12 L 55 12 L 55 9 Z M 55 13 L 54 16 L 56 16 L 55 13 Z M 6 17 L 3 19 L 7 22 L 6 20 L 9 19 L 6 17 Z M 55 19 L 55 20 L 57 20 L 55 19 Z M 6 22 L 1 24 L 5 25 L 7 24 L 6 22 Z M 6 25 L 3 26 Q 2 29 6 28 L 6 25 Z M 5 29 L 7 32 L 8 31 L 5 29 Z M 56 30 Q 53 32 56 33 Q 59 32 56 30 Z M 6 32 L 3 33 L 4 36 L 6 35 L 8 35 L 8 33 L 6 32 Z M 57 32 L 57 34 Q 59 37 60 34 L 57 32 Z M 56 41 L 54 43 L 55 44 L 57 43 L 56 41 Z M 15 45 L 13 48 L 14 50 L 12 51 L 15 52 L 15 45 Z M 11 46 L 12 48 Q 13 45 11 46 Z M 16 46 L 16 48 L 18 47 L 16 46 Z M 10 52 Q 8 56 12 55 L 12 53 L 10 52 Z M 42 53 L 41 56 L 42 56 L 42 53 Z M 14 54 L 14 56 L 16 55 L 14 54 Z M 19 54 L 20 55 L 21 56 Q 22 53 19 54 Z M 43 54 L 43 56 L 45 55 L 43 54 Z M 30 57 L 31 60 Q 30 62 33 61 L 35 58 L 30 57 Z M 42 57 L 40 59 L 42 59 L 41 62 L 45 59 Q 46 55 42 57 Z M 47 57 L 47 59 Q 44 60 49 62 L 50 60 L 49 59 L 49 58 L 47 57 Z M 7 58 L 3 60 L 7 60 L 7 58 Z " /><path fill="rgb(5,23,37)" stroke="rgb(5,23,37)" stroke-width="1" opacity="1" d="M 20 19 L 43.5 19 L 44 20.5 L 45 21.5 L 45 42.5 L 42.5 45 L 21.5 45 L 19 42.5 L 19 21.5 L 20 19 Z M 25 22 L 25 41 L 30 41 L 30 35 L 40 34 L 39 33 L 41 29 L 40 26 L 37 22 L 25 22 Z M 42 33 Q 40 36 43 35 L 42 33 Z " /><path fill="rgb(5,23,37)" stroke="rgb(5,23,37)" stroke-width="1" opacity="1" d="M 30 26 L 35 26 L 35 29.5 Q 33.8 32 30 31 L 30 26 Z " /><path fill="rgb(5,23,37)" stroke="rgb(5,23,37)" stroke-width="1" opacity="1" d="M 26 47 Q 30.9 45.4 29 51 L 27 51.5 L 28 54 L 26 53.5 L 26 47 Z " /><path fill="rgb(5,23,37)" stroke="rgb(5,23,37)" stroke-width="1" opacity="1" d="M 50.5 51 L 52 54 L 48 52.5 L 50.5 51 Z " /><path fill="rgb(5,23,37)" stroke="rgb(5,23,37)" stroke-width="1" opacity="1" d="M 56.5 55 Q 61.9 53.1 61 56.5 L 61.5 61 Q 64.1 61.8 63 58.5 L 64 58.5 Q 65.5 62.9 62.5 62 Q 61.8 64.8 57.5 64 L 56 62.5 Q 57.3 57.7 55 56.5 L 56.5 55 Z " /><path fill="rgb(16,49,70)" stroke="rgb(16,49,70)" stroke-width="1" opacity="1" d="M 25.5 13 L 26 16.5 L 25 16.5 L 25.5 13 Z " /><path fill="rgb(16,49,70)" stroke="rgb(16,49,70)" stroke-width="1" opacity="1" d="M 38.5 13 L 39 16.5 L 38 16.5 L 38.5 13 Z " /><path fill="rgb(16,49,70)" stroke="rgb(16,49,70)" stroke-width="1" opacity="1" d="M 25.5 47 L 26 50.5 L 25 50.5 L 25.5 47 Z " /><path fill="rgb(16,49,70)" stroke="rgb(16,49,70)" stroke-width="1" opacity="1" d="M 38.5 47 L 39 50.5 L 38 50.5 L 38.5 47 Z " /><path fill="rgb(12,39,57)" stroke="rgb(12,39,57)" stroke-width="1" opacity="1" d="M 30.5 13 L 31 16.5 L 30 16.5 L 30.5 13 Z " /><path fill="rgb(12,39,57)" stroke="rgb(12,39,57)" stroke-width="1" opacity="1" d="M 33.5 13 L 34 16.5 L 33 16.5 L 33.5 13 Z " /><path fill="rgb(12,39,57)" stroke="rgb(12,39,57)" stroke-width="1" opacity="1" d="M 13.5 25 L 17 25.5 L 13.5 26 L 13.5 25 Z " /><path fill="rgb(12,39,57)" stroke="rgb(12,39,57)" stroke-width="1" opacity="1" d="M 47.5 25 L 51 25.5 L 47.5 26 L 47.5 25 Z " /><path fill="rgb(12,39,57)" stroke="rgb(12,39,57)" stroke-width="1" opacity="1" d="M 13.5 39 L 17 39.5 L 13.5 40 L 13.5 39 Z " /><path fill="rgb(12,39,57)" stroke="rgb(12,39,57)" stroke-width="1" opacity="1" d="M 47.5 39 L 51 39.5 L 47.5 40 L 47.5 39 Z " /><path fill="rgb(12,39,57)" stroke="rgb(12,39,57)" stroke-width="1" opacity="1" d="M 30.5 47 L 31 50.5 L 30 50.5 L 30.5 47 Z " /><path fill="rgb(12,39,57)" stroke="rgb(12,39,57)" stroke-width="1" opacity="1" d="M 33.5 47 L 34 50.5 L 33 50.5 L 33.5 47 Z " /><path fill="rgb(39,101,134)" stroke="rgb(39,101,134)" stroke-width="1" opacity="1" d="M 24.5 10 L 25.5 12 L 24.5 10 Z " /><path fill="rgb(39,101,134)" stroke="rgb(39,101,134)" stroke-width="1" opacity="1" d="M 29.5 10 L 30.5 12 L 28 11.5 L 29.5 10 Z " /><path fill="rgb(39,101,134)" stroke="rgb(39,101,134)" stroke-width="1" opacity="1" d="M 34.5 10 L 35.5 12 L 33 11.5 L 34.5 10 Z " /><path fill="rgb(39,101,134)" stroke="rgb(39,101,134)" stroke-width="1" opacity="1" d="M 18.5 18 L 19.5 20 L 18.5 18 Z " /><path fill="rgb(39,101,134)" stroke="rgb(39,101,134)" stroke-width="1" opacity="1" d="M 21.5 18 L 43 18.5 L 21.5 19 L 21.5 18 Z " /><path fill="rgb(39,101,134)" stroke="rgb(39,101,134)" stroke-width="1" opacity="1" d="M 17.5 21 L 18 23.5 L 17 23.5 L 17.5 21 Z " /><path fill="rgb(39,101,134)" stroke="rgb(39,101,134)" stroke-width="1" opacity="1" d="M 46.5 21 L 47 23.5 L 46 23.5 L 46.5 21 Z " /><path fill="rgb(39,101,134)" stroke="rgb(39,101,134)" stroke-width="1" opacity="1" d="M 17.5 25 L 18 28.5 L 18 30.5 L 17 35.5 L 18 39.5 L 17 39.5 Q 18.8 34.3 13.5 36 L 13.5 35 L 17 35 L 17 30 L 13 29.5 L 17 29 L 17.5 25 Z " /><path fill="rgb(39,101,134)" stroke="rgb(39,101,134)" stroke-width="1" opacity="1" d="M 46.5 25 L 47 29 L 51 29.5 L 47 30 L 47 35 L 50.5 35 L 50.5 36 Q 45.3 34.3 47 39.5 L 46 39.5 L 47 35.5 L 46 30.5 L 46 28.5 L 46.5 25 Z " /><path fill="rgb(39,101,134)" stroke="rgb(39,101,134)" stroke-width="1" opacity="1" d="M 38.5 32 L 37.5 34 L 38.5 32 Z " /><path fill="rgb(39,101,134)" stroke="rgb(39,101,134)" stroke-width="1" opacity="1" d="M 28.5 52 L 31 52.5 Q 28.9 55.8 28.5 52 Z " /><path fill="rgb(39,101,134)" stroke="rgb(39,101,134)" stroke-width="1" opacity="1" d="M 33.5 52 L 36 52.5 Q 33.9 55.8 33.5 52 Z " /><path fill="rgb(5,22,35)" stroke="rgb(5,22,35)" stroke-width="1" opacity="1" d="M 13.5 23 L 17 23.5 L 13.5 24 L 13.5 23 Z " /><path fill="rgb(5,22,35)" stroke="rgb(5,22,35)" stroke-width="1" opacity="1" d="M 47.5 23 L 51 23.5 L 47.5 24 L 47.5 23 Z " /><path fill="rgb(5,22,35)" stroke="rgb(5,22,35)" stroke-width="1" opacity="1" d="M 13.5 41 L 17 41.5 L 13.5 42 L 13.5 41 Z " /><path fill="rgb(5,22,35)" stroke="rgb(5,22,35)" stroke-width="1" opacity="1" d="M 47.5 41 L 51 41.5 L 47.5 42 L 47.5 41 Z " /><path fill="rgb(235,235,231)" stroke="rgb(235,235,231)" stroke-width="1" opacity="1" d="M 25 23 L 36.5 23 L 39 24 L 40 29.5 L 36.5 34 L 29 34 L 29 41 L 26.5 41 L 25 39.5 L 25 23 Z M 29 26 L 29 31 Q 34 32 36 30 L 36 26 L 29 26 Z " /><path fill="rgb(56,141,184)" stroke="rgb(56,141,184)" stroke-width="1" opacity="1" d="M 24.5 11 L 25 17 Q 31.4 19.3 29 11.5 L 30 11.5 Q 27.6 19.3 34 17 L 34.5 11 L 35 17 Q 41 19.3 39 12.5 L 38.5 11 L 40 11.5 L 40 17 L 43.5 17 Q 47.3 18.5 46 24 L 53 24.5 L 46 25 L 47 29.5 L 46 34.5 L 46 36.5 Q 44.2 42.6 51.5 40 L 53 39.5 L 52.5 41 L 46 41 L 46 44.5 L 40 47 L 40 52.5 L 38.5 53 L 39 51.5 Q 41 44.8 35 47 L 34.5 53 L 34 47 Q 27.6 44.7 30 52.5 L 29 52.5 Q 31.4 44.7 25 47 L 26 52.5 L 24 53 L 24 47 L 21.5 47 L 18 44.5 L 18 41 L 11.5 41 L 11 39.5 L 12.5 40 Q 19.8 42.6 18 36.5 L 18 34.5 L 17 29.5 L 18 25 L 11 24.5 L 18 24 Q 16.8 18.5 20.5 17 L 24 17 L 24.5 11 Z M 22 18 L 21 19 L 19 20 L 19 44 L 21 45 L 44 45 L 45 44 L 45 19 L 43 18 L 22 18 Z " /><path fill="rgb(56,141,184)" stroke="rgb(56,141,184)" stroke-width="1" opacity="1" d="M 26.5 22 L 35 22.5 L 26.5 23 L 26.5 22 Z " /><path fill="rgb(56,141,184)" stroke="rgb(56,141,184)" stroke-width="1" opacity="1" d="M 11 29 Q 14 28 13 31 Q 10 32 11 29 Z " /><path fill="rgb(56,141,184)" stroke="rgb(56,141,184)" stroke-width="1" opacity="1" d="M 51 29 Q 54 28 53 31 Q 50 32 51 29 Z " /><path fill="rgb(56,141,184)" stroke="rgb(56,141,184)" stroke-width="1" opacity="1" d="M 11 34 Q 14 33 13 36 Q 10 37 11 34 Z " /><path fill="rgb(56,141,184)" stroke="rgb(56,141,184)" stroke-width="1" opacity="1" d="M 29.5 34 L 35 34.5 L 29.5 35 L 29.5 34 Z " /><path fill="rgb(56,141,184)" stroke="rgb(56,141,184)" stroke-width="1" opacity="1" d="M 51 34 Q 54 33 53 36 Q 50 37 51 34 Z " /><path fill="rgb(32,68,89)" stroke="rgb(32,68,89)" stroke-width="1" opacity="1" d="M 29.5 26 L 30 30.5 L 29 30.5 L 29.5 26 Z " /><path fill="rgb(32,68,89)" stroke="rgb(32,68,89)" stroke-width="1" opacity="1" d="M 29.5 35 L 30 39.5 L 29 39.5 L 29.5 35 Z " /><path fill="rgb(34,77,102)" stroke="rgb(34,77,102)" stroke-width="1" opacity="1" d="M 13.5 30 L 17 30.5 L 13.5 31 L 13.5 30 Z " /><path fill="rgb(34,77,102)" stroke="rgb(34,77,102)" stroke-width="1" opacity="1" d="M 47.5 30 L 51 30.5 L 47.5 31 L 47.5 30 Z " /><path fill="rgb(34,77,102)" stroke="rgb(34,77,102)" stroke-width="1" opacity="1" d="M 13.5 34 L 17 34.5 L 13.5 35 L 13.5 34 Z " /><path fill="rgb(34,77,102)" stroke="rgb(34,77,102)" stroke-width="1" opacity="1" d="M 47.5 34 L 51 34.5 L 47.5 35 L 47.5 34 Z " /><path fill="rgb(5,22,37)" stroke="rgb(5,22,37)" stroke-width="1" opacity="1" d="M 0.5 0 L 2 2.5 L 1 2.5 L 0.5 0 Z " /><path fill="rgb(5,22,37)" stroke="rgb(5,22,37)" stroke-width="1" opacity="1" d="M 3.5 0 L 7 1.5 L 4 3.5 L 6.5 5 L 8 4.5 L 7 5.5 L 8.5 8 L 6.5 8 L 5 8.5 L 8 9 L 7.5 11 L 6 10.5 L 6 12 L 2 12 L 2 13.5 L 5.5 13 L 8 14.5 L 4.5 16 L 2.5 15 L 0 16 L 1 10.5 L 1 8.5 L 1 6 L 3 5.5 L 3.5 0 Z M 3 8 Q -1 10 3 11 L 4 11 L 3 8 Z " /><path fill="rgb(5,22,37)" stroke="rgb(5,22,37)" stroke-width="1" opacity="1" d="M 12.5 0 Q 17 2 13.5 4 L 12.5 0 Z " /><path fill="rgb(5,22,37)" stroke="rgb(5,22,37)" stroke-width="1" opacity="1" d="M 18.5 0 L 20.5 1 L 23.5 0 L 26.5 1 L 30.5 0 L 30 1.5 Q 30.7 4.1 28 3 L 28 6 L 26.5 6 Q 24.8 2.9 23 4.5 L 23.5 3 L 20.5 2 L 19.5 5 L 18.5 2 L 17 1.5 L 18.5 0 Z " /><path fill="rgb(5,22,37)" stroke="rgb(5,22,37)" stroke-width="1" opacity="1" d="M 32.5 0 Q 35.5 1.5 32.5 3 L 31 2.5 L 33 1.5 L 32.5 0 Z " /><path fill="rgb(5,22,37)" stroke="rgb(5,22,37)" stroke-width="1" opacity="1" d="M 47 0 Q 50.3 -1.1 49 3 L 46 2.5 L 47 0 Z " /><path fill="rgb(5,22,37)" stroke="rgb(5,22,37)" stroke-width="1" opacity="1" d="M 52 0 L 56 0.5 L 56 2.5 Q 56.9 8.9 54.5 12 L 54 9.5 L 54 7.5 L 53.5 2 L 52 2.5 L 52 0 Z " /><path fill="rgb(5,22,37)" stroke="rgb(5,22,37)" stroke-width="1" opacity="1" d="M 57.5 0 L 58 2.5 L 57 2.5 L 57.5 0 Z " /><path fill="rgb(5,22,37)" stroke="rgb(5,22,37)" stroke-width="1" opacity="1" d="M 62.5 0 L 63.5 2 L 62 1.5 L 61.5 3 L 60.5 1 L 62.5 0 Z " /><path fill="rgb(5,22,37)" stroke="rgb(5,22,37)" stroke-width="1" opacity="1" d="M 37.5 1 L 39.5 2 L 41.5 2 L 44 2.5 L 42 3.5 Q 44.3 4.8 41.5 6 L 39 5.5 L 41 2.5 L 39.5 3 Q 35.5 4 37.5 1 Z " /><path fill="rgb(5,22,37)" stroke="rgb(5,22,37)" stroke-width="1" opacity="1" d="M 59.5 3 L 60.5 6 L 64 3.5 L 62.5 6 Q 65.1 5.2 64 8.5 L 64 10.5 L 62.5 13 L 62 11.5 L 62.5 10 Q 60.3 10.8 61 8.5 L 59 7.5 L 58.5 9 L 58 6.5 L 59.5 3 Z " /><path fill="rgb(5,22,37)" stroke="rgb(5,22,37)" stroke-width="1" opacity="1" d="M 17 6 L 19.5 7 L 21 6.5 L 19.5 8 L 17 7.5 L 17 6 Z " /><path fill="rgb(5,22,37)" stroke="rgb(5,22,37)" stroke-width="1" opacity="1" d="M 32.5 6 L 34 6.5 L 31.5 8 L 32.5 6 Z " /><path fill="rgb(5,22,37)" stroke="rgb(5,22,37)" stroke-width="1" opacity="1" d="M 54.5 13 L 56 15.5 L 54 16 L 54.5 13 Z " /><path fill="rgb(5,22,37)" stroke="rgb(5,22,37)" stroke-width="1" opacity="1" d="M 5.5 17 L 9 18.5 L 6 19.5 L 7 21.5 L 6.5 24 L 5 24.5 L 6 28 Q 1.9 29.3 3 26 L 5 25.5 L 1 23.5 L 6 21.5 L 3.5 18 L 5.5 17 Z " /><path fill="rgb(5,22,37)" stroke="rgb(5,22,37)" stroke-width="1" opacity="1" d="M 62.5 17 L 64 20 L 58 18.5 L 59.5 18 Q 61 20.5 62.5 17 Z " /><path fill="rgb(5,22,37)" stroke="rgb(5,22,37)" stroke-width="1" opacity="1" d="M 54.5 19 L 57 19.5 L 54.5 20 L 54.5 19 Z " /><path fill="rgb(5,22,37)" stroke="rgb(5,22,37)" stroke-width="1" opacity="1" d="M 53.5 26 Q 57.3 25 56 28 L 53.5 26 Z " /><path fill="rgb(5,22,37)" stroke="rgb(5,22,37)" stroke-width="1" opacity="1" d="M 58.5 26 L 57.5 28 L 58.5 26 Z " /><path fill="rgb(5,22,37)" stroke="rgb(5,22,37)" stroke-width="1" opacity="1" d="M 4.5 29 L 8 30.5 L 6.5 33 Q 8.8 32.3 8 34.5 L 5.5 35 L 3.5 36 L 3 33 L 6 31.5 L 4.5 29 Z " /><path fill="rgb(5,22,37)" stroke="rgb(5,22,37)" stroke-width="1" opacity="1" d="M 62.5 29 L 61.5 31 L 62.5 29 Z " /><path fill="rgb(5,22,37)" stroke="rgb(5,22,37)" stroke-width="1" opacity="1" d="M 55.5 30 L 58 30.5 L 57.5 32 L 60 33.5 Q 58.5 36.5 57 33.5 L 56.5 32 L 53 32.5 L 55.5 30 Z " /><path fill="rgb(5,22,37)" stroke="rgb(5,22,37)" stroke-width="1" opacity="1" d="M 14.5 32 L 15.5 34 L 14.5 32 Z " /><path fill="rgb(5,22,37)" stroke="rgb(5,22,37)" stroke-width="1" opacity="1" d="M 41.5 33 L 42.5 35 Q 39.7 35.7 41.5 33 Z " /><path fill="rgb(5,22,37)" stroke="rgb(5,22,37)" stroke-width="1" opacity="1" d="M 61.5 33 Q 64.5 34.5 61.5 36 L 61.5 33 Z " /><path fill="rgb(5,22,37)" stroke="rgb(5,22,37)" stroke-width="1" opacity="1" d="M 4.5 41 L 8 41.5 L 6 45 Q 9 44 8 47 Q 5 46 6 49 L 9 49.5 L 7.5 53 L 6 52.5 L 7 54.5 Q 3 56.5 7 58.5 Q 7.9 61.5 3.5 60 L 3.5 59 L 6 58.5 L 2 57.5 L 4 52 L 1.5 53 Q -1.3 51.7 1 50.5 L 1.5 49 L 3.5 49 Q 6.1 49.7 5 47 Q 2.3 48.1 3 45.5 L 5 42.5 L 4.5 41 Z " /><path fill="rgb(5,22,37)" stroke="rgb(5,22,37)" stroke-width="1" opacity="1" d="M 55.5 41 L 56.5 43 L 54.5 44 L 54 42.5 L 55.5 41 Z " /><path fill="rgb(5,22,37)" stroke="rgb(5,22,37)" stroke-width="1" opacity="1" d="M 48.5 44 Q 51.3 45.3 49 46.5 L 50.5 50 Q 52 46.5 53.5 49 L 55 48.5 L 51 46.5 L 57.5 45 L 59.5 46 L 62.5 45 Q 65 46 64 50.5 L 60.5 52 L 58.5 52 L 56 52.5 L 59.5 54 L 62.5 53 Q 65.3 54.3 63 55.5 L 64 57.5 L 63 61 L 61 60.5 Q 63.3 59.3 60.5 58 L 59 57.5 L 61 57 Q 62.4 53.3 56.5 55 Q 53.7 56.3 56 57.5 Q 54.8 62.3 57 63.5 L 55 64 L 54 59 Q 51 60 52 57 Q 55 58 54 55 L 47.5 56 Q 44.8 54.8 47 53.5 L 46 50.5 L 48 47.5 L 47.5 46 L 49 45.5 L 48.5 44 Z M 57 46 L 56 49 Q 59 48 58 51 L 61 49 L 62 50 L 62 49 L 57 46 Z M 51 51 L 48 53 L 52 54 L 51 51 Z " /><path fill="rgb(5,22,37)" stroke="rgb(5,22,37)" stroke-width="1" opacity="1" d="M 14.5 45 L 15 52 L 11.5 50 L 10 50.5 Q 11.3 47.8 12.5 50 Q 14.8 50.8 14 48.5 L 14 46.5 L 14.5 45 Z " /><path fill="rgb(5,22,37)" stroke="rgb(5,22,37)" stroke-width="1" opacity="1" d="M 1.5 46 L 0.5 48 L 1.5 46 Z " /><path fill="rgb(5,22,37)" stroke="rgb(5,22,37)" stroke-width="1" opacity="1" d="M 10.5 46 Q 12.8 45.3 12 47.5 L 10.5 46 Z " /><path fill="rgb(5,22,37)" stroke="rgb(5,22,37)" stroke-width="1" opacity="1" d="M 16 46 L 18 46.5 L 16 47.5 L 16 46 Z " /><path fill="rgb(5,22,37)" stroke="rgb(5,22,37)" stroke-width="1" opacity="1" d="M 19.5 49 L 22 50.5 L 20.5 50 L 19.5 49 Z " /><path fill="rgb(5,22,37)" stroke="rgb(5,22,37)" stroke-width="1" opacity="1" d="M 10 52 L 12 52.5 Q 9.5 54 13 55.5 L 11.5 57 L 11.5 55 Q 8.5 55.7 10 52 Z " /><path fill="rgb(5,22,37)" stroke="rgb(5,22,37)" stroke-width="1" opacity="1" d="M 13.5 53 L 16 54.5 L 14 55.5 L 13.5 53 Z " /><path fill="rgb(5,22,37)" stroke="rgb(5,22,37)" stroke-width="1" opacity="1" d="M 32.5 53 L 33.5 55 Q 30.7 55.7 32.5 53 Z " /><path fill="rgb(5,22,37)" stroke="rgb(5,22,37)" stroke-width="1" opacity="1" d="M 41.5 53 L 42 55.5 L 41 55.5 L 41.5 53 Z " /><path fill="rgb(5,22,37)" stroke="rgb(5,22,37)" stroke-width="1" opacity="1" d="M 18.5 54 Q 21.8 52.9 21 55.5 L 19 56.5 L 19.5 55 L 18.5 54 Z " /><path fill="rgb(5,22,37)" stroke="rgb(5,22,37)" stroke-width="1" opacity="1" d="M 25.5 54 L 29 54.5 L 25.5 55 L 25.5 54 Z " /><path fill="rgb(5,22,37)" stroke="rgb(5,22,37)" stroke-width="1" opacity="1" d="M 43 54 L 45 54.5 L 43 55.5 L 43 54 Z " /><path fill="rgb(5,22,37)" stroke="rgb(5,22,37)" stroke-width="1" opacity="1" d="M 30 57 Q 34.6 55.8 36 58.5 L 35.5 60 L 34.5 58 L 32.5 61 Q 30.3 61.8 31 59.5 L 30 57 Z " /><path fill="rgb(5,22,37)" stroke="rgb(5,22,37)" stroke-width="1" opacity="1" d="M 41.5 57 Q 45.9 55.5 45 58.5 L 40.5 62 L 41.5 59 L 40 58.5 L 41.5 57 Z " /><path fill="rgb(5,22,37)" stroke="rgb(5,22,37)" stroke-width="1" opacity="1" d="M 47 57 L 49 57.5 L 48.5 59 L 50 59.5 L 48.5 62 Q 44.3 60.3 47 58.5 L 47 57 Z " /><path fill="rgb(5,22,37)" stroke="rgb(5,22,37)" stroke-width="1" opacity="1" d="M 20.5 58 L 20 59.5 L 19.5 61 L 19 59.5 L 20.5 58 Z " /><path fill="rgb(5,22,37)" stroke="rgb(5,22,37)" stroke-width="1" opacity="1" d="M 27.5 58 L 27 59.5 L 27.5 62 L 28.5 60 L 29 61.5 L 28 64 Q 24.3 65.3 26 59.5 L 27.5 58 Z " /><path fill="rgb(5,22,37)" stroke="rgb(5,22,37)" stroke-width="1" opacity="1" d="M 3.5 62 L 8 63.5 L 5.5 64 L 3.5 62 Z " /><path fill="rgb(5,22,37)" stroke="rgb(5,22,37)" stroke-width="1" opacity="1" d="M 10.5 62 L 11.5 64 L 10.5 62 Z " /><path fill="rgb(5,22,37)" stroke="rgb(5,22,37)" stroke-width="1" opacity="1" d="M 16.5 62 Q 18.8 61.3 18 63.5 L 16.5 62 Z " /><path fill="rgb(5,22,37)" stroke="rgb(5,22,37)" stroke-width="1" opacity="1" d="M 31.5 62 L 36 63.5 L 32.5 64 L 30.5 64 L 29 63.5 L 31.5 62 Z " /><path fill="rgb(5,22,37)" stroke="rgb(5,22,37)" stroke-width="1" opacity="1" d="M 62.5 62 Q 65.1 61.3 64 64 L 61 63.5 L 62.5 62 Z " /><path fill="rgb(5,22,37)" stroke="rgb(5,22,37)" stroke-width="1" opacity="1" d="M 22.5 63 L 25 63.5 L 22.5 64 L 22.5 63 Z " /><path fill="rgb(5,22,37)" stroke="rgb(5,22,37)" stroke-width="1" opacity="1" d="M 43.5 63 L 46 63.5 L 43.5 64 L 43.5 63 Z " /></svg>